<?xml version="1.0" encoding="UTF-8" standalone="no"?>
<!DOCTYPE svg PUBLIC "-//W3C//DTD SVG 1.1//EN"
 "http://www.w3.org/Graphics/SVG/1.1/DTD/svg11.dtd">
<!-- Generated by graphviz version 2.42.3 (20191010.1750)
 -->
<!-- Title: finite_state_machine Pages: 1 -->
<svg width="360pt" height="154pt"
 viewBox="0.00 0.00 360.00 154.00" xmlns="http://www.w3.org/2000/svg" xmlns:xlink="http://www.w3.org/1999/xlink">
<g id="graph0" class="graph" transform="scale(1 1) rotate(0) translate(4 150)">
<title>finite_state_machine</title>
<polygon fill="white" stroke="transparent" points="-4,4 -4,-150 356,-150 356,4 -4,4"/>
<!-- 3 -->
<g id="node1" class="node">
<title>3</title>
<ellipse fill="none" stroke="black" cx="97" cy="-77" rx="18" ry="18"/>
<text text-anchor="middle" x="97" y="-73.3" font-family="Times,serif" font-size="14.00">3</text>
</g>
<!-- 1 -->
<g id="node2" class="node">
<title>1</title>
<ellipse fill="none" stroke="black" cx="176" cy="-18" rx="18" ry="18"/>
<text text-anchor="middle" x="176" y="-14.3" font-family="Times,serif" font-size="14.00">1</text>
</g>
<!-- 3&#45;&gt;1 -->
<g id="edge1" class="edge">
<title>3&#45;&gt;1</title>
<path fill="none" stroke="black" d="M111.11,-65.76C117.61,-60.29 125.62,-53.68 133,-48 139.25,-43.19 146.16,-38.14 152.55,-33.59"/>
<polygon fill="black" stroke="black" points="154.66,-36.38 160.82,-27.75 150.63,-30.66 154.66,-36.38"/>
<text text-anchor="middle" x="136.5" y="-51.8" font-family="Times,serif" font-size="14.00">0</text>
</g>
<!-- 2 -->
<g id="node3" class="node">
<title>2</title>
<ellipse fill="none" stroke="black" cx="176" cy="-128" rx="18" ry="18"/>
<text text-anchor="middle" x="176" y="-124.3" font-family="Times,serif" font-size="14.00">2</text>
</g>
<!-- 3&#45;&gt;2 -->
<g id="edge2" class="edge">
<title>3&#45;&gt;2</title>
<path fill="none" stroke="black" d="M112.48,-86.59C123.67,-94 139.36,-104.39 152.22,-112.91"/>
<polygon fill="black" stroke="black" points="150.31,-115.85 160.58,-118.45 154.18,-110.01 150.31,-115.85"/>
<text text-anchor="middle" x="136.5" y="-107.8" font-family="Times,serif" font-size="14.00">0</text>
</g>
<!-- 4 -->
<g id="node4" class="node">
<title>4</title>
<ellipse fill="none" stroke="black" cx="255" cy="-71" rx="18" ry="18"/>
<text text-anchor="middle" x="255" y="-67.3" font-family="Times,serif" font-size="14.00">4</text>
</g>
<!-- 3&#45;&gt;4 -->
<g id="edge3" class="edge">
<title>3&#45;&gt;4</title>
<path fill="none" stroke="black" d="M114.99,-76.35C141.81,-75.31 194.21,-73.3 226.46,-72.06"/>
<polygon fill="black" stroke="black" points="226.69,-75.55 236.55,-71.67 226.43,-68.56 226.69,-75.55"/>
<text text-anchor="middle" x="176" y="-77.8" font-family="Times,serif" font-size="14.00">0</text>
</g>
<!-- 1&#45;&gt;4 -->
<g id="edge9" class="edge">
<title>1&#45;&gt;4</title>
<path fill="none" stroke="black" d="M191.48,-27.97C202.74,-35.72 218.56,-46.6 231.46,-55.49"/>
<polygon fill="black" stroke="black" points="229.62,-58.47 239.84,-61.25 233.59,-52.7 229.62,-58.47"/>
<text text-anchor="middle" x="215.5" y="-49.8" font-family="Times,serif" font-size="14.00">1</text>
</g>
<!-- 5 -->
<g id="node6" class="node">
<title>5</title>
<ellipse fill="none" stroke="black" cx="334" cy="-30" rx="18" ry="18"/>
<text text-anchor="middle" x="334" y="-26.3" font-family="Times,serif" font-size="14.00">5</text>
</g>
<!-- 1&#45;&gt;5 -->
<g id="edge10" class="edge">
<title>1&#45;&gt;5</title>
<path fill="none" stroke="black" d="M193.99,-19.31C220.95,-21.38 273.77,-25.44 305.97,-27.92"/>
<polygon fill="black" stroke="black" points="305.79,-31.42 316.03,-28.69 306.33,-24.44 305.79,-31.42"/>
<text text-anchor="middle" x="255" y="-28.8" font-family="Times,serif" font-size="14.00">21</text>
</g>
<!-- 2&#45;&gt;4 -->
<g id="edge4" class="edge">
<title>2&#45;&gt;4</title>
<path fill="none" stroke="black" d="M191.12,-117.55C202.52,-109.11 218.76,-97.09 231.88,-87.38"/>
<polygon fill="black" stroke="black" points="234.01,-90.15 239.97,-81.39 229.85,-84.53 234.01,-90.15"/>
<text text-anchor="middle" x="215.5" y="-104.8" font-family="Times,serif" font-size="14.00">0</text>
</g>
<!-- 4&#45;&gt;5 -->
<g id="edge8" class="edge">
<title>4&#45;&gt;5</title>
<path fill="none" stroke="black" d="M271.21,-62.9C281.97,-57.17 296.61,-49.38 308.94,-42.81"/>
<polygon fill="black" stroke="black" points="310.64,-45.87 317.82,-38.08 307.35,-39.69 310.64,-45.87"/>
<text text-anchor="middle" x="294.5" y="-54.8" font-family="Times,serif" font-size="14.00">1</text>
</g>
<!-- 0 -->
<g id="node5" class="node">
<title>0</title>
<ellipse fill="none" stroke="black" cx="18" cy="-77" rx="18" ry="18"/>
<text text-anchor="middle" x="18" y="-73.3" font-family="Times,serif" font-size="14.00">0</text>
</g>
<!-- 0&#45;&gt;3 -->
<g id="edge6" class="edge">
<title>0&#45;&gt;3</title>
<path fill="none" stroke="black" d="M36.09,-77C45.66,-77 57.82,-77 68.68,-77"/>
<polygon fill="black" stroke="black" points="68.96,-80.5 78.96,-77 68.96,-73.5 68.96,-80.5"/>
<text text-anchor="middle" x="57.5" y="-80.8" font-family="Times,serif" font-size="14.00">0</text>
</g>
<!-- 0&#45;&gt;1 -->
<g id="edge5" class="edge">
<title>0&#45;&gt;1</title>
<path fill="none" stroke="black" d="M32.28,-65.12C43.81,-55.47 61.38,-42.3 79,-35 101.03,-25.87 127.89,-21.64 147.59,-19.68"/>
<polygon fill="black" stroke="black" points="148.06,-23.15 157.73,-18.81 147.46,-16.18 148.06,-23.15"/>
<text text-anchor="middle" x="97" y="-38.8" font-family="Times,serif" font-size="14.00">0</text>
</g>
<!-- 0&#45;&gt;2 -->
<g id="edge7" class="edge">
<title>0&#45;&gt;2</title>
<path fill="none" stroke="black" d="M34.05,-85.89C40.13,-89.29 47.29,-93.06 54,-96 87.98,-110.9 96.82,-114.76 133,-123 137.64,-124.06 142.61,-124.9 147.46,-125.57"/>
<polygon fill="black" stroke="black" points="147.35,-129.08 157.69,-126.77 148.17,-122.12 147.35,-129.08"/>
<text text-anchor="middle" x="97" y="-121.8" font-family="Times,serif" font-size="14.00">0</text>
</g>
</g>
</svg>
