<?xml version="1.0" encoding="UTF-8" standalone="no"?>
<!DOCTYPE svg PUBLIC "-//W3C//DTD SVG 1.1//EN"
 "http://www.w3.org/Graphics/SVG/1.1/DTD/svg11.dtd">
<!-- Generated by graphviz version 2.42.3 (20191010.1750)
 -->
<!-- Title: finite_state_machine Pages: 1 -->
<svg width="576pt" height="226pt"
 viewBox="0.00 0.00 576.00 225.97" xmlns="http://www.w3.org/2000/svg" xmlns:xlink="http://www.w3.org/1999/xlink">
<g id="graph0" class="graph" transform="scale(1.02 1.02) rotate(0) translate(4 225.5)">
<title>finite_state_machine</title>
<polygon fill="white" stroke="transparent" points="-4,4 -4,-225.5 580.99,-225.5 580.99,4 -4,4"/>
<!-- 11 -->
<g id="node1" class="node">
<title>11</title>
<ellipse fill="none" stroke="black" cx="285.5" cy="-202" rx="19.5" ry="19.5"/>
<text text-anchor="middle" x="285.5" y="-198.3" font-family="Times,serif" font-size="14.00">11</text>
</g>
<!-- 9 -->
<g id="node2" class="node">
<title>9</title>
<ellipse fill="none" stroke="black" cx="395" cy="-182" rx="18" ry="18"/>
<text text-anchor="middle" x="395" y="-178.3" font-family="Times,serif" font-size="14.00">9</text>
</g>
<!-- 11&#45;&gt;9 -->
<g id="edge1" class="edge">
<title>11&#45;&gt;9</title>
<path fill="none" stroke="black" d="M304.73,-198.61C321.82,-195.43 347.56,-190.64 367.02,-187.02"/>
<polygon fill="black" stroke="black" points="367.9,-190.42 377.09,-185.15 366.62,-183.53 367.9,-190.42"/>
<text text-anchor="middle" x="341" y="-197.8" font-family="Times,serif" font-size="14.00">0</text>
</g>
<!-- 10 -->
<g id="node6" class="node">
<title>10</title>
<ellipse fill="none" stroke="black" cx="475.49" cy="-120" rx="19.5" ry="19.5"/>
<text text-anchor="middle" x="475.49" y="-116.3" font-family="Times,serif" font-size="14.00">10</text>
</g>
<!-- 9&#45;&gt;10 -->
<g id="edge6" class="edge">
<title>9&#45;&gt;10</title>
<path fill="none" stroke="black" d="M409.67,-171.2C421.24,-162.06 438.06,-148.78 451.66,-138.03"/>
<polygon fill="black" stroke="black" points="453.97,-140.67 459.64,-131.73 449.63,-135.18 453.97,-140.67"/>
<text text-anchor="middle" x="434.5" y="-155.8" font-family="Times,serif" font-size="14.00">2</text>
</g>
<!-- 8 -->
<g id="node3" class="node">
<title>8</title>
<ellipse fill="none" stroke="black" cx="205" cy="-200" rx="18" ry="18"/>
<text text-anchor="middle" x="205" y="-196.3" font-family="Times,serif" font-size="14.00">8</text>
</g>
<!-- 8&#45;&gt;11 -->
<g id="edge2" class="edge">
<title>8&#45;&gt;11</title>
<path fill="none" stroke="black" d="M223.03,-200.43C232.6,-200.68 244.8,-200.99 255.8,-201.27"/>
<polygon fill="black" stroke="black" points="255.77,-204.77 265.85,-201.52 255.94,-197.77 255.77,-204.77"/>
<text text-anchor="middle" x="244.5" y="-204.8" font-family="Times,serif" font-size="14.00">0</text>
</g>
<!-- 3 -->
<g id="node4" class="node">
<title>3</title>
<ellipse fill="none" stroke="black" cx="97" cy="-148" rx="18" ry="18"/>
<text text-anchor="middle" x="97" y="-144.3" font-family="Times,serif" font-size="14.00">3</text>
</g>
<!-- 3&#45;&gt;8 -->
<g id="edge3" class="edge">
<title>3&#45;&gt;8</title>
<path fill="none" stroke="black" d="M113.64,-155.67C130.96,-164.17 159.12,-177.98 179.4,-187.93"/>
<polygon fill="black" stroke="black" points="178.12,-191.2 188.64,-192.46 181.2,-184.92 178.12,-191.2"/>
<text text-anchor="middle" x="151" y="-184.8" font-family="Times,serif" font-size="14.00">0</text>
</g>
<!-- 6 -->
<g id="node5" class="node">
<title>6</title>
<ellipse fill="none" stroke="black" cx="285.5" cy="-147" rx="18" ry="18"/>
<text text-anchor="middle" x="285.5" y="-143.3" font-family="Times,serif" font-size="14.00">6</text>
</g>
<!-- 3&#45;&gt;6 -->
<g id="edge4" class="edge">
<title>3&#45;&gt;6</title>
<path fill="none" stroke="black" d="M115.21,-147.91C147.69,-147.73 218.23,-147.36 257.23,-147.15"/>
<polygon fill="black" stroke="black" points="257.35,-150.65 267.33,-147.09 257.31,-143.65 257.35,-150.65"/>
<text text-anchor="middle" x="205" y="-150.8" font-family="Times,serif" font-size="14.00">2</text>
</g>
<!-- 6&#45;&gt;9 -->
<g id="edge5" class="edge">
<title>6&#45;&gt;9</title>
<path fill="none" stroke="black" d="M302.95,-152.1C317.66,-156.69 339.81,-163.67 359,-170 361.95,-170.98 365.04,-172.01 368.11,-173.05"/>
<polygon fill="black" stroke="black" points="367.05,-176.39 377.64,-176.31 369.31,-169.76 367.05,-176.39"/>
<text text-anchor="middle" x="341" y="-173.8" font-family="Times,serif" font-size="14.00">2</text>
</g>
<!-- 12 -->
<g id="node10" class="node">
<title>12</title>
<ellipse fill="none" stroke="black" cx="557.49" cy="-84" rx="19.5" ry="19.5"/>
<text text-anchor="middle" x="557.49" y="-80.3" font-family="Times,serif" font-size="14.00">12</text>
</g>
<!-- 10&#45;&gt;12 -->
<g id="edge19" class="edge">
<title>10&#45;&gt;12</title>
<path fill="none" stroke="black" d="M493.46,-112.37C504.1,-107.58 518.04,-101.3 530.1,-95.88"/>
<polygon fill="black" stroke="black" points="531.59,-99.04 539.27,-91.75 528.72,-92.66 531.59,-99.04"/>
<text text-anchor="middle" x="516.49" y="-106.8" font-family="Times,serif" font-size="14.00">5</text>
</g>
<!-- 2 -->
<g id="node7" class="node">
<title>2</title>
<ellipse fill="none" stroke="black" cx="151" cy="-18" rx="18" ry="18"/>
<text text-anchor="middle" x="151" y="-14.3" font-family="Times,serif" font-size="14.00">2</text>
</g>
<!-- 5 -->
<g id="node8" class="node">
<title>5</title>
<ellipse fill="none" stroke="black" cx="285.5" cy="-81" rx="18" ry="18"/>
<text text-anchor="middle" x="285.5" y="-77.3" font-family="Times,serif" font-size="14.00">5</text>
</g>
<!-- 2&#45;&gt;5 -->
<g id="edge7" class="edge">
<title>2&#45;&gt;5</title>
<path fill="none" stroke="black" d="M168.9,-21.15C183.63,-24.27 205.35,-29.78 223,-38 235.18,-43.67 236.97,-47.32 248,-55 252.51,-58.14 257.32,-61.53 261.91,-64.79"/>
<polygon fill="black" stroke="black" points="260.16,-67.85 270.34,-70.8 264.23,-62.15 260.16,-67.85"/>
<text text-anchor="middle" x="205" y="-41.8" font-family="Times,serif" font-size="14.00">2</text>
</g>
<!-- 5&#45;&gt;10 -->
<g id="edge8" class="edge">
<title>5&#45;&gt;10</title>
<path fill="none" stroke="black" d="M301.77,-89.2C308.17,-92.35 315.8,-95.73 323,-98 364.5,-111.07 414.87,-116.42 445.8,-118.58"/>
<polygon fill="black" stroke="black" points="445.68,-122.08 455.88,-119.22 446.12,-115.09 445.68,-122.08"/>
<text text-anchor="middle" x="395" y="-118.8" font-family="Times,serif" font-size="14.00">1</text>
</g>
<!-- 7 -->
<g id="node9" class="node">
<title>7</title>
<ellipse fill="none" stroke="black" cx="395" cy="-77" rx="18" ry="18"/>
<text text-anchor="middle" x="395" y="-73.3" font-family="Times,serif" font-size="14.00">7</text>
</g>
<!-- 5&#45;&gt;7 -->
<g id="edge9" class="edge">
<title>5&#45;&gt;7</title>
<path fill="none" stroke="black" d="M303.77,-80.36C320.7,-79.73 346.76,-78.76 366.53,-78.02"/>
<polygon fill="black" stroke="black" points="366.91,-81.51 376.77,-77.64 366.64,-74.52 366.91,-81.51"/>
<text text-anchor="middle" x="341" y="-82.8" font-family="Times,serif" font-size="14.00">1</text>
</g>
<!-- 7&#45;&gt;10 -->
<g id="edge10" class="edge">
<title>7&#45;&gt;10</title>
<path fill="none" stroke="black" d="M411.13,-85.29C421.85,-91.16 436.49,-99.18 449,-106.04"/>
<polygon fill="black" stroke="black" points="447.6,-109.26 458.05,-110.99 450.96,-103.12 447.6,-109.26"/>
<text text-anchor="middle" x="434.5" y="-102.8" font-family="Times,serif" font-size="14.00">0</text>
</g>
<!-- 7&#45;&gt;12 -->
<g id="edge11" class="edge">
<title>7&#45;&gt;12</title>
<path fill="none" stroke="black" d="M413.18,-76.41C432.94,-75.87 466.34,-75.37 494.99,-77 505.74,-77.61 517.5,-78.81 527.83,-80.06"/>
<polygon fill="black" stroke="black" points="527.61,-83.56 537.97,-81.34 528.49,-76.61 527.61,-83.56"/>
<text text-anchor="middle" x="475.49" y="-80.8" font-family="Times,serif" font-size="14.00">1</text>
</g>
<!-- 0 -->
<g id="node11" class="node">
<title>0</title>
<ellipse fill="none" stroke="black" cx="18" cy="-80" rx="18" ry="18"/>
<text text-anchor="middle" x="18" y="-76.3" font-family="Times,serif" font-size="14.00">0</text>
</g>
<!-- 0&#45;&gt;3 -->
<g id="edge12" class="edge">
<title>0&#45;&gt;3</title>
<path fill="none" stroke="black" d="M32.06,-91.54C43.9,-101.99 61.54,-117.57 75.3,-129.72"/>
<polygon fill="black" stroke="black" points="73.06,-132.41 82.87,-136.41 77.7,-127.17 73.06,-132.41"/>
<text text-anchor="middle" x="57.5" y="-119.8" font-family="Times,serif" font-size="14.00">2</text>
</g>
<!-- 0&#45;&gt;2 -->
<g id="edge13" class="edge">
<title>0&#45;&gt;2</title>
<path fill="none" stroke="black" d="M31.47,-67.78C37.81,-62.08 45.88,-55.56 54,-51 76.02,-38.64 103.45,-29.78 123.35,-24.37"/>
<polygon fill="black" stroke="black" points="124.48,-27.7 133.27,-21.79 122.71,-20.92 124.48,-27.7"/>
<text text-anchor="middle" x="57.5" y="-54.8" font-family="Times,serif" font-size="14.00">2</text>
</g>
<!-- 1 -->
<g id="node12" class="node">
<title>1</title>
<ellipse fill="none" stroke="black" cx="205" cy="-80" rx="18" ry="18"/>
<text text-anchor="middle" x="205" y="-76.3" font-family="Times,serif" font-size="14.00">1</text>
</g>
<!-- 0&#45;&gt;1 -->
<g id="edge14" class="edge">
<title>0&#45;&gt;1</title>
<path fill="none" stroke="black" d="M36.07,-80C68.29,-80 138.27,-80 176.95,-80"/>
<polygon fill="black" stroke="black" points="176.97,-83.5 186.97,-80 176.97,-76.5 176.97,-83.5"/>
<text text-anchor="middle" x="97" y="-83.8" font-family="Times,serif" font-size="14.00">2</text>
</g>
<!-- 1&#45;&gt;6 -->
<g id="edge16" class="edge">
<title>1&#45;&gt;6</title>
<path fill="none" stroke="black" d="M219.32,-91.37C231.46,-101.73 249.59,-117.2 263.65,-129.2"/>
<polygon fill="black" stroke="black" points="261.5,-131.97 271.38,-135.8 266.04,-126.65 261.5,-131.97"/>
<text text-anchor="middle" x="244.5" y="-118.8" font-family="Times,serif" font-size="14.00">0</text>
</g>
<!-- 1&#45;&gt;5 -->
<g id="edge15" class="edge">
<title>1&#45;&gt;5</title>
<path fill="none" stroke="black" d="M223.03,-80.22C233.01,-80.34 245.85,-80.51 257.2,-80.65"/>
<polygon fill="black" stroke="black" points="257.45,-84.16 267.5,-80.78 257.54,-77.16 257.45,-84.16"/>
<text text-anchor="middle" x="244.5" y="-83.8" font-family="Times,serif" font-size="14.00">0</text>
</g>
<!-- 4 -->
<g id="node13" class="node">
<title>4</title>
<ellipse fill="none" stroke="black" cx="341" cy="-31" rx="18" ry="18"/>
<text text-anchor="middle" x="341" y="-27.3" font-family="Times,serif" font-size="14.00">4</text>
</g>
<!-- 1&#45;&gt;4 -->
<g id="edge17" class="edge">
<title>1&#45;&gt;4</title>
<path fill="none" stroke="black" d="M221,-70.99C227.07,-67.57 234.24,-63.83 241,-61 264.85,-51.04 293.17,-42.79 313.4,-37.49"/>
<polygon fill="black" stroke="black" points="314.35,-40.86 323.17,-34.99 312.61,-34.07 314.35,-40.86"/>
<text text-anchor="middle" x="244.5" y="-64.8" font-family="Times,serif" font-size="14.00">2</text>
</g>
<!-- 4&#45;&gt;10 -->
<g id="edge18" class="edge">
<title>4&#45;&gt;10</title>
<path fill="none" stroke="black" d="M358.88,-28.05C374.01,-26.28 396.31,-25.88 413,-35 425.5,-41.84 445.69,-72.06 459.5,-94.54"/>
<polygon fill="black" stroke="black" points="456.63,-96.56 464.81,-103.3 462.62,-92.93 456.63,-96.56"/>
<text text-anchor="middle" x="395" y="-38.8" font-family="Times,serif" font-size="14.00">2</text>
</g>
</g>
</svg>
