<?xml version="1.0" encoding="UTF-8" standalone="no"?>
<!DOCTYPE svg PUBLIC "-//W3C//DTD SVG 1.1//EN"
 "http://www.w3.org/Graphics/SVG/1.1/DTD/svg11.dtd">
<!-- Generated by graphviz version 2.42.3 (20191010.1750)
 -->
<!-- Title: finite_state_machine Pages: 1 -->
<svg width="374pt" height="154pt"
 viewBox="0.00 0.00 374.00 154.00" xmlns="http://www.w3.org/2000/svg" xmlns:xlink="http://www.w3.org/1999/xlink">
<g id="graph0" class="graph" transform="scale(1 1) rotate(0) translate(4 150)">
<title>finite_state_machine</title>
<polygon fill="white" stroke="transparent" points="-4,4 -4,-150 370,-150 370,4 -4,4"/>
<!-- 2 -->
<g id="node1" class="node">
<title>2</title>
<ellipse fill="none" stroke="black" cx="183" cy="-128" rx="18" ry="18"/>
<text text-anchor="middle" x="183" y="-124.3" font-family="Times,serif" font-size="14.00">2</text>
</g>
<!-- 4 -->
<g id="node2" class="node">
<title>4</title>
<ellipse fill="none" stroke="black" cx="262" cy="-71" rx="18" ry="18"/>
<text text-anchor="middle" x="262" y="-67.3" font-family="Times,serif" font-size="14.00">4</text>
</g>
<!-- 2&#45;&gt;4 -->
<g id="edge1" class="edge">
<title>2&#45;&gt;4</title>
<path fill="none" stroke="black" d="M198.12,-117.55C209.52,-109.11 225.76,-97.09 238.88,-87.38"/>
<polygon fill="black" stroke="black" points="241.01,-90.15 246.97,-81.39 236.85,-84.53 241.01,-90.15"/>
<text text-anchor="middle" x="222.5" y="-104.8" font-family="Times,serif" font-size="14.00">9</text>
</g>
<!-- 5 -->
<g id="node3" class="node">
<title>5</title>
<ellipse fill="none" stroke="black" cx="348" cy="-30" rx="18" ry="18"/>
<text text-anchor="middle" x="348" y="-26.3" font-family="Times,serif" font-size="14.00">5</text>
</g>
<!-- 4&#45;&gt;5 -->
<g id="edge2" class="edge">
<title>4&#45;&gt;5</title>
<path fill="none" stroke="black" d="M278.41,-63.48C290.64,-57.51 308,-49.04 322.19,-42.11"/>
<polygon fill="black" stroke="black" points="323.95,-45.14 331.41,-37.61 320.88,-38.85 323.95,-45.14"/>
<text text-anchor="middle" x="305" y="-55.8" font-family="Times,serif" font-size="14.00">14</text>
</g>
<!-- 3 -->
<g id="node4" class="node">
<title>3</title>
<ellipse fill="none" stroke="black" cx="104" cy="-77" rx="18" ry="18"/>
<text text-anchor="middle" x="104" y="-73.3" font-family="Times,serif" font-size="14.00">3</text>
</g>
<!-- 3&#45;&gt;2 -->
<g id="edge4" class="edge">
<title>3&#45;&gt;2</title>
<path fill="none" stroke="black" d="M119.48,-86.59C130.67,-94 146.36,-104.39 159.22,-112.91"/>
<polygon fill="black" stroke="black" points="157.31,-115.85 167.58,-118.45 161.18,-110.01 157.31,-115.85"/>
<text text-anchor="middle" x="143.5" y="-107.8" font-family="Times,serif" font-size="14.00">1</text>
</g>
<!-- 3&#45;&gt;4 -->
<g id="edge3" class="edge">
<title>3&#45;&gt;4</title>
<path fill="none" stroke="black" d="M121.99,-76.35C148.81,-75.31 201.21,-73.3 233.46,-72.06"/>
<polygon fill="black" stroke="black" points="233.69,-75.55 243.55,-71.67 233.43,-68.56 233.69,-75.55"/>
<text text-anchor="middle" x="183" y="-77.8" font-family="Times,serif" font-size="14.00">5</text>
</g>
<!-- 1 -->
<g id="node5" class="node">
<title>1</title>
<ellipse fill="none" stroke="black" cx="183" cy="-18" rx="18" ry="18"/>
<text text-anchor="middle" x="183" y="-14.3" font-family="Times,serif" font-size="14.00">1</text>
</g>
<!-- 3&#45;&gt;1 -->
<g id="edge5" class="edge">
<title>3&#45;&gt;1</title>
<path fill="none" stroke="black" d="M118.11,-65.76C124.61,-60.29 132.62,-53.68 140,-48 146.25,-43.19 153.16,-38.14 159.55,-33.59"/>
<polygon fill="black" stroke="black" points="161.66,-36.38 167.82,-27.75 157.63,-30.66 161.66,-36.38"/>
<text text-anchor="middle" x="143.5" y="-51.8" font-family="Times,serif" font-size="14.00">4</text>
</g>
<!-- 1&#45;&gt;4 -->
<g id="edge9" class="edge">
<title>1&#45;&gt;4</title>
<path fill="none" stroke="black" d="M198.48,-27.97C209.74,-35.72 225.56,-46.6 238.46,-55.49"/>
<polygon fill="black" stroke="black" points="236.62,-58.47 246.84,-61.25 240.59,-52.7 236.62,-58.47"/>
<text text-anchor="middle" x="222.5" y="-49.8" font-family="Times,serif" font-size="14.00">0</text>
</g>
<!-- 1&#45;&gt;5 -->
<g id="edge10" class="edge">
<title>1&#45;&gt;5</title>
<path fill="none" stroke="black" d="M201.14,-19.26C229.31,-21.34 285.66,-25.48 319.48,-27.97"/>
<polygon fill="black" stroke="black" points="319.37,-31.48 329.6,-28.72 319.89,-24.49 319.37,-31.48"/>
<text text-anchor="middle" x="262" y="-27.8" font-family="Times,serif" font-size="14.00">11</text>
</g>
<!-- 0 -->
<g id="node6" class="node">
<title>0</title>
<ellipse fill="none" stroke="black" cx="18" cy="-77" rx="18" ry="18"/>
<text text-anchor="middle" x="18" y="-73.3" font-family="Times,serif" font-size="14.00">0</text>
</g>
<!-- 0&#45;&gt;2 -->
<g id="edge6" class="edge">
<title>0&#45;&gt;2</title>
<path fill="none" stroke="black" d="M34.02,-85.98C40.09,-89.39 47.25,-93.14 54,-96 90.89,-111.63 100.83,-114.6 140,-123 144.65,-124 149.63,-124.81 154.49,-125.47"/>
<polygon fill="black" stroke="black" points="154.38,-128.98 164.72,-126.67 155.19,-122.03 154.38,-128.98"/>
<text text-anchor="middle" x="104" y="-121.8" font-family="Times,serif" font-size="14.00">8</text>
</g>
<!-- 0&#45;&gt;3 -->
<g id="edge7" class="edge">
<title>0&#45;&gt;3</title>
<path fill="none" stroke="black" d="M36.4,-77C47.74,-77 62.77,-77 75.68,-77"/>
<polygon fill="black" stroke="black" points="75.9,-80.5 85.9,-77 75.9,-73.5 75.9,-80.5"/>
<text text-anchor="middle" x="61" y="-80.8" font-family="Times,serif" font-size="14.00">10</text>
</g>
<!-- 0&#45;&gt;1 -->
<g id="edge8" class="edge">
<title>0&#45;&gt;1</title>
<path fill="none" stroke="black" d="M32.53,-66.3C45.51,-56.61 66.01,-42.7 86,-35 108.26,-26.43 135.1,-22.14 154.73,-20.02"/>
<polygon fill="black" stroke="black" points="155.2,-23.49 164.82,-19.05 154.53,-16.52 155.2,-23.49"/>
<text text-anchor="middle" x="104" y="-38.8" font-family="Times,serif" font-size="14.00">7</text>
</g>
</g>
</svg>
