<?xml version="1.0" encoding="UTF-8" standalone="no"?>
<!DOCTYPE svg PUBLIC "-//W3C//DTD SVG 1.1//EN"
 "http://www.w3.org/Graphics/SVG/1.1/DTD/svg11.dtd">
<!-- Generated by graphviz version 2.42.3 (20191010.1750)
 -->
<!-- Title: finite_state_machine Pages: 1 -->
<svg width="390pt" height="155pt"
 viewBox="0.00 0.00 390.00 155.00" xmlns="http://www.w3.org/2000/svg" xmlns:xlink="http://www.w3.org/1999/xlink">
<g id="graph0" class="graph" transform="scale(1 1) rotate(0) translate(4 151)">
<title>finite_state_machine</title>
<polygon fill="white" stroke="transparent" points="-4,4 -4,-151 386,-151 386,4 -4,4"/>
<!-- 1 -->
<g id="node1" class="node">
<title>1</title>
<ellipse fill="none" stroke="black" cx="191" cy="-129" rx="18" ry="18"/>
<text text-anchor="middle" x="191" y="-125.3" font-family="Times,serif" font-size="14.00">1</text>
</g>
<!-- 5 -->
<g id="node2" class="node">
<title>5</title>
<ellipse fill="none" stroke="black" cx="364" cy="-108" rx="18" ry="18"/>
<text text-anchor="middle" x="364" y="-104.3" font-family="Times,serif" font-size="14.00">5</text>
</g>
<!-- 1&#45;&gt;5 -->
<g id="edge1" class="edge">
<title>1&#45;&gt;5</title>
<path fill="none" stroke="black" d="M209.22,-127.43C235.07,-125.01 285.42,-119.99 328,-114 330.56,-113.64 333.23,-113.24 335.89,-112.81"/>
<polygon fill="black" stroke="black" points="336.65,-116.23 345.94,-111.14 335.5,-109.33 336.65,-116.23"/>
<text text-anchor="middle" x="273" y="-125.8" font-family="Times,serif" font-size="14.00">11</text>
</g>
<!-- 4 -->
<g id="node3" class="node">
<title>4</title>
<ellipse fill="none" stroke="black" cx="273" cy="-77" rx="18" ry="18"/>
<text text-anchor="middle" x="273" y="-73.3" font-family="Times,serif" font-size="14.00">4</text>
</g>
<!-- 1&#45;&gt;4 -->
<g id="edge2" class="edge">
<title>1&#45;&gt;4</title>
<path fill="none" stroke="black" d="M206.63,-119.35C212.89,-115.22 220.3,-110.36 227,-106 234.12,-101.37 241.89,-96.34 248.94,-91.8"/>
<polygon fill="black" stroke="black" points="250.87,-94.72 257.39,-86.37 247.08,-88.84 250.87,-94.72"/>
<text text-anchor="middle" x="232" y="-109.8" font-family="Times,serif" font-size="14.00">0</text>
</g>
<!-- 4&#45;&gt;5 -->
<g id="edge9" class="edge">
<title>4&#45;&gt;5</title>
<path fill="none" stroke="black" d="M290.32,-82.69C303.37,-87.23 321.91,-93.69 337,-98.94"/>
<polygon fill="black" stroke="black" points="336.18,-102.37 346.78,-102.35 338.49,-95.76 336.18,-102.37"/>
<text text-anchor="middle" x="318.5" y="-98.8" font-family="Times,serif" font-size="14.00">14</text>
</g>
<!-- 0 -->
<g id="node4" class="node">
<title>0</title>
<ellipse fill="none" stroke="black" cx="18" cy="-72" rx="18" ry="18"/>
<text text-anchor="middle" x="18" y="-68.3" font-family="Times,serif" font-size="14.00">0</text>
</g>
<!-- 0&#45;&gt;1 -->
<g id="edge3" class="edge">
<title>0&#45;&gt;1</title>
<path fill="none" stroke="black" d="M34.04,-80.93C40.12,-84.34 47.27,-88.09 54,-91 93.09,-107.89 103.71,-110.58 145,-121 150.67,-122.43 156.81,-123.7 162.68,-124.79"/>
<polygon fill="black" stroke="black" points="162.33,-128.28 172.78,-126.53 163.52,-121.38 162.33,-128.28"/>
<text text-anchor="middle" x="109" y="-119.8" font-family="Times,serif" font-size="14.00">7</text>
</g>
<!-- 3 -->
<g id="node5" class="node">
<title>3</title>
<ellipse fill="none" stroke="black" cx="109" cy="-72" rx="18" ry="18"/>
<text text-anchor="middle" x="109" y="-68.3" font-family="Times,serif" font-size="14.00">3</text>
</g>
<!-- 0&#45;&gt;3 -->
<g id="edge4" class="edge">
<title>0&#45;&gt;3</title>
<path fill="none" stroke="black" d="M36.16,-72C48.72,-72 66.02,-72 80.5,-72"/>
<polygon fill="black" stroke="black" points="80.89,-75.5 90.89,-72 80.89,-68.5 80.89,-75.5"/>
<text text-anchor="middle" x="63.5" y="-75.8" font-family="Times,serif" font-size="14.00">10</text>
</g>
<!-- 2 -->
<g id="node6" class="node">
<title>2</title>
<ellipse fill="none" stroke="black" cx="191" cy="-18" rx="18" ry="18"/>
<text text-anchor="middle" x="191" y="-14.3" font-family="Times,serif" font-size="14.00">2</text>
</g>
<!-- 0&#45;&gt;2 -->
<g id="edge5" class="edge">
<title>0&#45;&gt;2</title>
<path fill="none" stroke="black" d="M32.78,-61.64C46.7,-51.76 69.19,-37.33 91,-30 114.37,-22.14 142.37,-19.31 162.63,-18.35"/>
<polygon fill="black" stroke="black" points="162.85,-21.84 172.72,-17.99 162.6,-14.85 162.85,-21.84"/>
<text text-anchor="middle" x="109" y="-33.8" font-family="Times,serif" font-size="14.00">8</text>
</g>
<!-- 3&#45;&gt;1 -->
<g id="edge6" class="edge">
<title>3&#45;&gt;1</title>
<path fill="none" stroke="black" d="M124.3,-82.19C136.25,-90.7 153.49,-102.99 167.32,-112.84"/>
<polygon fill="black" stroke="black" points="165.65,-115.95 175.82,-118.9 169.71,-110.24 165.65,-115.95"/>
<text text-anchor="middle" x="150" y="-106.8" font-family="Times,serif" font-size="14.00">4</text>
</g>
<!-- 3&#45;&gt;4 -->
<g id="edge8" class="edge">
<title>3&#45;&gt;4</title>
<path fill="none" stroke="black" d="M127.03,-72.53C155.03,-73.39 211.04,-75.12 244.65,-76.16"/>
<polygon fill="black" stroke="black" points="244.61,-79.66 254.71,-76.47 244.82,-72.66 244.61,-79.66"/>
<text text-anchor="middle" x="191" y="-77.8" font-family="Times,serif" font-size="14.00">5</text>
</g>
<!-- 3&#45;&gt;2 -->
<g id="edge7" class="edge">
<title>3&#45;&gt;2</title>
<path fill="none" stroke="black" d="M122.84,-60.38C129.28,-54.83 137.31,-48.25 145,-43 151.49,-38.56 158.84,-34.22 165.69,-30.44"/>
<polygon fill="black" stroke="black" points="167.43,-33.47 174.58,-25.66 164.12,-27.3 167.43,-33.47"/>
<text text-anchor="middle" x="150" y="-46.8" font-family="Times,serif" font-size="14.00">1</text>
</g>
<!-- 2&#45;&gt;4 -->
<g id="edge10" class="edge">
<title>2&#45;&gt;4</title>
<path fill="none" stroke="black" d="M207.61,-25.38C216.57,-29.93 227.82,-36.18 237,-43 242.44,-47.05 247.91,-51.89 252.84,-56.63"/>
<polygon fill="black" stroke="black" points="250.54,-59.28 260.09,-63.87 255.49,-54.33 250.54,-59.28"/>
<text text-anchor="middle" x="232" y="-46.8" font-family="Times,serif" font-size="14.00">9</text>
</g>
</g>
</svg>
