<?xml version="1.0" encoding="UTF-8" standalone="no"?>
<!DOCTYPE svg PUBLIC "-//W3C//DTD SVG 1.1//EN"
 "http://www.w3.org/Graphics/SVG/1.1/DTD/svg11.dtd">
<!-- Generated by graphviz version 2.42.3 (20191010.1750)
 -->
<!-- Title: finite_state_machine Pages: 1 -->
<svg width="372pt" height="121pt"
 viewBox="0.00 0.00 372.00 120.57" xmlns="http://www.w3.org/2000/svg" xmlns:xlink="http://www.w3.org/1999/xlink">
<g id="graph0" class="graph" transform="scale(1 1) rotate(0) translate(4 116.57)">
<title>finite_state_machine</title>
<polygon fill="white" stroke="transparent" points="-4,4 -4,-116.57 368,-116.57 368,4 -4,4"/>
<!-- 3 -->
<g id="node1" class="node">
<title>3</title>
<ellipse fill="none" stroke="black" cx="264" cy="-45.57" rx="18" ry="18"/>
<text text-anchor="middle" x="264" y="-41.87" font-family="Times,serif" font-size="14.00">3</text>
</g>
<!-- 6 -->
<g id="node2" class="node">
<title>6</title>
<ellipse fill="none" stroke="black" cx="346" cy="-45.57" rx="18" ry="18"/>
<text text-anchor="middle" x="346" y="-41.87" font-family="Times,serif" font-size="14.00">6</text>
</g>
<!-- 3&#45;&gt;6 -->
<g id="edge1" class="edge">
<title>3&#45;&gt;6</title>
<path fill="none" stroke="black" d="M282.36,-45.57C292.7,-45.57 306.06,-45.57 317.78,-45.57"/>
<polygon fill="black" stroke="black" points="317.95,-49.07 327.95,-45.57 317.95,-42.07 317.95,-49.07"/>
<text text-anchor="middle" x="305" y="-49.37" font-family="Times,serif" font-size="14.00">1</text>
</g>
<!-- 5 -->
<g id="node3" class="node">
<title>5</title>
<ellipse fill="none" stroke="black" cx="100" cy="-94.57" rx="18" ry="18"/>
<text text-anchor="middle" x="100" y="-90.87" font-family="Times,serif" font-size="14.00">5</text>
</g>
<!-- 4 -->
<g id="node4" class="node">
<title>4</title>
<ellipse fill="none" stroke="black" cx="182" cy="-80.57" rx="18" ry="18"/>
<text text-anchor="middle" x="182" y="-76.87" font-family="Times,serif" font-size="14.00">4</text>
</g>
<!-- 5&#45;&gt;4 -->
<g id="edge2" class="edge">
<title>5&#45;&gt;4</title>
<path fill="none" stroke="black" d="M117.97,-91.6C128.47,-89.76 142.18,-87.36 154.13,-85.27"/>
<polygon fill="black" stroke="black" points="154.81,-88.7 164.06,-83.53 153.6,-81.81 154.81,-88.7"/>
<text text-anchor="middle" x="141" y="-91.37" font-family="Times,serif" font-size="14.00">4</text>
</g>
<!-- 4&#45;&gt;3 -->
<g id="edge3" class="edge">
<title>4&#45;&gt;3</title>
<path fill="none" stroke="black" d="M198.81,-73.65C209.98,-68.76 225.19,-62.11 238.01,-56.5"/>
<polygon fill="black" stroke="black" points="239.47,-59.68 247.23,-52.47 236.66,-53.27 239.47,-59.68"/>
<text text-anchor="middle" x="223" y="-68.37" font-family="Times,serif" font-size="14.00">1</text>
</g>
<!-- 4&#45;&gt;6 -->
<g id="edge4" class="edge">
<title>4&#45;&gt;6</title>
<path fill="none" stroke="black" d="M200.12,-83.05C208.53,-83.93 218.81,-84.49 228,-83.57 265.22,-79.81 275.37,-78.71 310,-64.57 313.6,-63.09 317.32,-61.35 320.91,-59.52"/>
<polygon fill="black" stroke="black" points="322.87,-62.45 330.02,-54.64 319.55,-56.28 322.87,-62.45"/>
<text text-anchor="middle" x="264" y="-85.37" font-family="Times,serif" font-size="14.00">3</text>
</g>
<!-- 0 -->
<g id="node5" class="node">
<title>0</title>
<ellipse fill="none" stroke="black" cx="18" cy="-67.57" rx="18" ry="18"/>
<text text-anchor="middle" x="18" y="-63.87" font-family="Times,serif" font-size="14.00">0</text>
</g>
<!-- 0&#45;&gt;5 -->
<g id="edge5" class="edge">
<title>0&#45;&gt;5</title>
<path fill="none" stroke="black" d="M35.19,-73.03C46.03,-76.69 60.55,-81.59 72.99,-85.79"/>
<polygon fill="black" stroke="black" points="72.24,-89.23 82.83,-89.11 74.48,-82.6 72.24,-89.23"/>
<text text-anchor="middle" x="59" y="-86.37" font-family="Times,serif" font-size="14.00">4</text>
</g>
<!-- 1 -->
<g id="node6" class="node">
<title>1</title>
<ellipse fill="none" stroke="black" cx="100" cy="-40.57" rx="18" ry="18"/>
<text text-anchor="middle" x="100" y="-36.87" font-family="Times,serif" font-size="14.00">1</text>
</g>
<!-- 0&#45;&gt;1 -->
<g id="edge6" class="edge">
<title>0&#45;&gt;1</title>
<path fill="none" stroke="black" d="M35.19,-62.1C46.03,-58.44 60.55,-53.54 72.99,-49.34"/>
<polygon fill="black" stroke="black" points="74.48,-52.54 82.83,-46.02 72.24,-45.9 74.48,-52.54"/>
<text text-anchor="middle" x="59" y="-59.37" font-family="Times,serif" font-size="14.00">2</text>
</g>
<!-- 1&#45;&gt;4 -->
<g id="edge7" class="edge">
<title>1&#45;&gt;4</title>
<path fill="none" stroke="black" d="M116.42,-48.28C127.82,-53.98 143.57,-61.85 156.66,-68.4"/>
<polygon fill="black" stroke="black" points="155.11,-71.54 165.62,-72.88 158.24,-65.27 155.11,-71.54"/>
<text text-anchor="middle" x="141" y="-66.37" font-family="Times,serif" font-size="14.00">0</text>
</g>
<!-- 2 -->
<g id="node7" class="node">
<title>2</title>
<ellipse fill="none" stroke="black" cx="182" cy="-18.57" rx="18" ry="18"/>
<text text-anchor="middle" x="182" y="-14.87" font-family="Times,serif" font-size="14.00">2</text>
</g>
<!-- 1&#45;&gt;2 -->
<g id="edge8" class="edge">
<title>1&#45;&gt;2</title>
<path fill="none" stroke="black" d="M114.86,-29.98C121,-25.91 128.51,-21.73 136,-19.57 141.63,-17.94 147.82,-17.18 153.77,-16.92"/>
<polygon fill="black" stroke="black" points="154.02,-20.42 164.02,-16.91 154.02,-13.42 154.02,-20.42"/>
<text text-anchor="middle" x="141" y="-23.37" font-family="Times,serif" font-size="14.00">2</text>
</g>
<!-- 2&#45;&gt;3 -->
<g id="edge9" class="edge">
<title>2&#45;&gt;3</title>
<path fill="none" stroke="black" d="M199.79,-22.99C208.31,-25.34 218.77,-28.4 228,-31.57 231.16,-32.65 234.44,-33.86 237.69,-35.1"/>
<polygon fill="black" stroke="black" points="236.51,-38.4 247.1,-38.82 239.08,-31.89 236.51,-38.4"/>
<text text-anchor="middle" x="223" y="-35.37" font-family="Times,serif" font-size="14.00">0</text>
</g>
<!-- 2&#45;&gt;6 -->
<g id="edge10" class="edge">
<title>2&#45;&gt;6</title>
<path fill="none" stroke="black" d="M199.09,-11.85C218.93,-4.54 253.55,5.05 282,-3.57 297.59,-8.29 312.85,-18.28 324.45,-27.33"/>
<polygon fill="black" stroke="black" points="322.24,-30.05 332.19,-33.67 326.67,-24.63 322.24,-30.05"/>
<text text-anchor="middle" x="264" y="-7.37" font-family="Times,serif" font-size="14.00">2</text>
</g>
</g>
</svg>
