<?xml version="1.0" encoding="UTF-8" standalone="no"?>
<!DOCTYPE svg PUBLIC "-//W3C//DTD SVG 1.1//EN"
 "http://www.w3.org/Graphics/SVG/1.1/DTD/svg11.dtd">
<!-- Generated by graphviz version 2.42.3 (20191010.1750)
 -->
<!-- Title: finite_state_machine Pages: 1 -->
<svg width="390pt" height="154pt"
 viewBox="0.00 0.00 390.00 154.00" xmlns="http://www.w3.org/2000/svg" xmlns:xlink="http://www.w3.org/1999/xlink">
<g id="graph0" class="graph" transform="scale(1 1) rotate(0) translate(4 150)">
<title>finite_state_machine</title>
<polygon fill="white" stroke="transparent" points="-4,4 -4,-150 386,-150 386,4 -4,4"/>
<!-- 2 -->
<g id="node1" class="node">
<title>2</title>
<ellipse fill="none" stroke="black" cx="191" cy="-128" rx="18" ry="18"/>
<text text-anchor="middle" x="191" y="-124.3" font-family="Times,serif" font-size="14.00">2</text>
</g>
<!-- 4 -->
<g id="node2" class="node">
<title>4</title>
<ellipse fill="none" stroke="black" cx="273" cy="-71" rx="18" ry="18"/>
<text text-anchor="middle" x="273" y="-67.3" font-family="Times,serif" font-size="14.00">4</text>
</g>
<!-- 2&#45;&gt;4 -->
<g id="edge1" class="edge">
<title>2&#45;&gt;4</title>
<path fill="none" stroke="black" d="M206.3,-117.81C218.25,-109.3 235.49,-97.01 249.32,-87.16"/>
<polygon fill="black" stroke="black" points="251.71,-89.76 257.82,-81.1 247.65,-84.05 251.71,-89.76"/>
<text text-anchor="middle" x="232" y="-105.8" font-family="Times,serif" font-size="14.00">9</text>
</g>
<!-- 5 -->
<g id="node3" class="node">
<title>5</title>
<ellipse fill="none" stroke="black" cx="364" cy="-30" rx="18" ry="18"/>
<text text-anchor="middle" x="364" y="-26.3" font-family="Times,serif" font-size="14.00">5</text>
</g>
<!-- 4&#45;&gt;5 -->
<g id="edge2" class="edge">
<title>4&#45;&gt;5</title>
<path fill="none" stroke="black" d="M289.91,-63.67C303.2,-57.55 322.39,-48.71 337.77,-41.62"/>
<polygon fill="black" stroke="black" points="339.61,-44.63 347.23,-37.27 336.68,-38.27 339.61,-44.63"/>
<text text-anchor="middle" x="318.5" y="-57.8" font-family="Times,serif" font-size="14.00">14</text>
</g>
<!-- 3 -->
<g id="node4" class="node">
<title>3</title>
<ellipse fill="none" stroke="black" cx="109" cy="-77" rx="18" ry="18"/>
<text text-anchor="middle" x="109" y="-73.3" font-family="Times,serif" font-size="14.00">3</text>
</g>
<!-- 3&#45;&gt;2 -->
<g id="edge4" class="edge">
<title>3&#45;&gt;2</title>
<path fill="none" stroke="black" d="M124.67,-86.35C136.4,-93.83 153.06,-104.45 166.63,-113.1"/>
<polygon fill="black" stroke="black" points="165.11,-116.28 175.42,-118.71 168.87,-110.38 165.11,-116.28"/>
<text text-anchor="middle" x="150" y="-108.8" font-family="Times,serif" font-size="14.00">1</text>
</g>
<!-- 3&#45;&gt;4 -->
<g id="edge3" class="edge">
<title>3&#45;&gt;4</title>
<path fill="none" stroke="black" d="M127.03,-76.37C155.03,-75.33 211.04,-73.26 244.65,-72.01"/>
<polygon fill="black" stroke="black" points="244.85,-75.51 254.71,-71.64 244.59,-68.51 244.85,-75.51"/>
<text text-anchor="middle" x="191" y="-77.8" font-family="Times,serif" font-size="14.00">5</text>
</g>
<!-- 1 -->
<g id="node5" class="node">
<title>1</title>
<ellipse fill="none" stroke="black" cx="191" cy="-18" rx="18" ry="18"/>
<text text-anchor="middle" x="191" y="-14.3" font-family="Times,serif" font-size="14.00">1</text>
</g>
<!-- 3&#45;&gt;1 -->
<g id="edge5" class="edge">
<title>3&#45;&gt;1</title>
<path fill="none" stroke="black" d="M123.04,-65.65C129.51,-60.16 137.53,-53.56 145,-48 151.88,-42.87 159.59,-37.58 166.65,-32.9"/>
<polygon fill="black" stroke="black" points="168.69,-35.75 175.14,-27.35 164.86,-29.89 168.69,-35.75"/>
<text text-anchor="middle" x="150" y="-51.8" font-family="Times,serif" font-size="14.00">4</text>
</g>
<!-- 1&#45;&gt;4 -->
<g id="edge9" class="edge">
<title>1&#45;&gt;4</title>
<path fill="none" stroke="black" d="M206.67,-27.72C218.59,-35.61 235.6,-46.88 249.27,-55.94"/>
<polygon fill="black" stroke="black" points="247.42,-58.91 257.69,-61.52 251.29,-53.08 247.42,-58.91"/>
<text text-anchor="middle" x="232" y="-50.8" font-family="Times,serif" font-size="14.00">0</text>
</g>
<!-- 1&#45;&gt;5 -->
<g id="edge10" class="edge">
<title>1&#45;&gt;5</title>
<path fill="none" stroke="black" d="M209.02,-19.19C238.65,-21.27 299.94,-25.57 335.61,-28.08"/>
<polygon fill="black" stroke="black" points="335.57,-31.58 345.79,-28.79 336.06,-24.6 335.57,-31.58"/>
<text text-anchor="middle" x="273" y="-27.8" font-family="Times,serif" font-size="14.00">11</text>
</g>
<!-- 0 -->
<g id="node6" class="node">
<title>0</title>
<ellipse fill="none" stroke="black" cx="18" cy="-77" rx="18" ry="18"/>
<text text-anchor="middle" x="18" y="-73.3" font-family="Times,serif" font-size="14.00">0</text>
</g>
<!-- 0&#45;&gt;2 -->
<g id="edge6" class="edge">
<title>0&#45;&gt;2</title>
<path fill="none" stroke="black" d="M34.01,-86C40.08,-89.41 47.24,-93.16 54,-96 93.01,-112.4 103.47,-115.86 145,-124 150.68,-125.11 156.82,-125.92 162.68,-126.5"/>
<polygon fill="black" stroke="black" points="162.54,-130 172.79,-127.32 163.1,-123.02 162.54,-130"/>
<text text-anchor="middle" x="109" y="-123.8" font-family="Times,serif" font-size="14.00">8</text>
</g>
<!-- 0&#45;&gt;3 -->
<g id="edge7" class="edge">
<title>0&#45;&gt;3</title>
<path fill="none" stroke="black" d="M36.16,-77C48.72,-77 66.02,-77 80.5,-77"/>
<polygon fill="black" stroke="black" points="80.89,-80.5 90.89,-77 80.89,-73.5 80.89,-80.5"/>
<text text-anchor="middle" x="63.5" y="-80.8" font-family="Times,serif" font-size="14.00">10</text>
</g>
<!-- 0&#45;&gt;1 -->
<g id="edge8" class="edge">
<title>0&#45;&gt;1</title>
<path fill="none" stroke="black" d="M33.13,-66.69C47.12,-56.99 69.51,-42.82 91,-35 114.34,-26.51 142.34,-22.2 162.61,-20.05"/>
<polygon fill="black" stroke="black" points="163.08,-23.52 172.71,-19.09 162.42,-16.56 163.08,-23.52"/>
<text text-anchor="middle" x="109" y="-38.8" font-family="Times,serif" font-size="14.00">7</text>
</g>
</g>
</svg>
