<?xml version="1.0" encoding="UTF-8" standalone="no"?>
<!DOCTYPE svg PUBLIC "-//W3C//DTD SVG 1.1//EN"
 "http://www.w3.org/Graphics/SVG/1.1/DTD/svg11.dtd">
<!-- Generated by graphviz version 2.42.3 (20191010.1750)
 -->
<!-- Title: finite_state_machine Pages: 1 -->
<svg width="372pt" height="120pt"
 viewBox="0.00 0.00 372.00 120.00" xmlns="http://www.w3.org/2000/svg" xmlns:xlink="http://www.w3.org/1999/xlink">
<g id="graph0" class="graph" transform="scale(1 1) rotate(0) translate(4 116)">
<title>finite_state_machine</title>
<polygon fill="white" stroke="transparent" points="-4,4 -4,-116 368,-116 368,4 -4,4"/>
<!-- 5 -->
<g id="node1" class="node">
<title>5</title>
<ellipse fill="none" stroke="black" cx="100" cy="-94" rx="18" ry="18"/>
<text text-anchor="middle" x="100" y="-90.3" font-family="Times,serif" font-size="14.00">5</text>
</g>
<!-- 4 -->
<g id="node2" class="node">
<title>4</title>
<ellipse fill="none" stroke="black" cx="182" cy="-82" rx="18" ry="18"/>
<text text-anchor="middle" x="182" y="-78.3" font-family="Times,serif" font-size="14.00">4</text>
</g>
<!-- 5&#45;&gt;4 -->
<g id="edge1" class="edge">
<title>5&#45;&gt;4</title>
<path fill="none" stroke="black" d="M117.97,-91.46C128.47,-89.88 142.18,-87.82 154.13,-86.03"/>
<polygon fill="black" stroke="black" points="154.69,-89.49 164.06,-84.54 153.65,-82.56 154.69,-89.49"/>
<text text-anchor="middle" x="141" y="-91.8" font-family="Times,serif" font-size="14.00">8</text>
</g>
<!-- 6 -->
<g id="node3" class="node">
<title>6</title>
<ellipse fill="none" stroke="black" cx="346" cy="-47" rx="18" ry="18"/>
<text text-anchor="middle" x="346" y="-43.3" font-family="Times,serif" font-size="14.00">6</text>
</g>
<!-- 4&#45;&gt;6 -->
<g id="edge2" class="edge">
<title>4&#45;&gt;6</title>
<path fill="none" stroke="black" d="M200.12,-84.48C208.53,-85.36 218.81,-85.93 228,-85 265.22,-81.25 275.37,-80.15 310,-66 313.6,-64.53 317.32,-62.78 320.91,-60.96"/>
<polygon fill="black" stroke="black" points="322.87,-63.88 330.02,-56.07 319.55,-57.72 322.87,-63.88"/>
<text text-anchor="middle" x="264" y="-86.8" font-family="Times,serif" font-size="14.00">3</text>
</g>
<!-- 3 -->
<g id="node4" class="node">
<title>3</title>
<ellipse fill="none" stroke="black" cx="264" cy="-47" rx="18" ry="18"/>
<text text-anchor="middle" x="264" y="-43.3" font-family="Times,serif" font-size="14.00">3</text>
</g>
<!-- 4&#45;&gt;3 -->
<g id="edge3" class="edge">
<title>4&#45;&gt;3</title>
<path fill="none" stroke="black" d="M198.81,-75.09C209.98,-70.2 225.19,-63.54 238.01,-57.94"/>
<polygon fill="black" stroke="black" points="239.47,-61.12 247.23,-53.9 236.66,-54.7 239.47,-61.12"/>
<text text-anchor="middle" x="223" y="-69.8" font-family="Times,serif" font-size="14.00">1</text>
</g>
<!-- 3&#45;&gt;6 -->
<g id="edge4" class="edge">
<title>3&#45;&gt;6</title>
<path fill="none" stroke="black" d="M282.36,-47C292.7,-47 306.06,-47 317.78,-47"/>
<polygon fill="black" stroke="black" points="317.95,-50.5 327.95,-47 317.95,-43.5 317.95,-50.5"/>
<text text-anchor="middle" x="305" y="-50.8" font-family="Times,serif" font-size="14.00">1</text>
</g>
<!-- 2 -->
<g id="node5" class="node">
<title>2</title>
<ellipse fill="none" stroke="black" cx="182" cy="-18" rx="18" ry="18"/>
<text text-anchor="middle" x="182" y="-14.3" font-family="Times,serif" font-size="14.00">2</text>
</g>
<!-- 2&#45;&gt;6 -->
<g id="edge5" class="edge">
<title>2&#45;&gt;6</title>
<path fill="none" stroke="black" d="M199.11,-11.81C218.99,-5.1 253.63,3.59 282,-5 297.59,-9.72 312.85,-19.71 324.45,-28.77"/>
<polygon fill="black" stroke="black" points="322.24,-31.48 332.19,-35.1 326.67,-26.06 322.24,-31.48"/>
<text text-anchor="middle" x="264" y="-8.8" font-family="Times,serif" font-size="14.00">10</text>
</g>
<!-- 2&#45;&gt;3 -->
<g id="edge6" class="edge">
<title>2&#45;&gt;3</title>
<path fill="none" stroke="black" d="M199.33,-23.19C207.9,-25.98 218.57,-29.54 228,-33 231.13,-34.15 234.41,-35.39 237.64,-36.65"/>
<polygon fill="black" stroke="black" points="236.46,-39.95 247.05,-40.39 239.04,-33.44 236.46,-39.95"/>
<text text-anchor="middle" x="223" y="-36.8" font-family="Times,serif" font-size="14.00">4</text>
</g>
<!-- 1 -->
<g id="node6" class="node">
<title>1</title>
<ellipse fill="none" stroke="black" cx="100" cy="-40" rx="18" ry="18"/>
<text text-anchor="middle" x="100" y="-36.3" font-family="Times,serif" font-size="14.00">1</text>
</g>
<!-- 1&#45;&gt;4 -->
<g id="edge7" class="edge">
<title>1&#45;&gt;4</title>
<path fill="none" stroke="black" d="M116.42,-48.1C127.82,-54.08 143.57,-62.35 156.66,-69.22"/>
<polygon fill="black" stroke="black" points="155.14,-72.38 165.62,-73.93 158.4,-66.18 155.14,-72.38"/>
<text text-anchor="middle" x="141" y="-66.8" font-family="Times,serif" font-size="14.00">3</text>
</g>
<!-- 1&#45;&gt;2 -->
<g id="edge8" class="edge">
<title>1&#45;&gt;2</title>
<path fill="none" stroke="black" d="M114.86,-29.41C121,-25.35 128.51,-21.16 136,-19 141.63,-17.37 147.82,-16.61 153.77,-16.35"/>
<polygon fill="black" stroke="black" points="154.02,-19.85 164.02,-16.34 154.02,-12.85 154.02,-19.85"/>
<text text-anchor="middle" x="141" y="-22.8" font-family="Times,serif" font-size="14.00">2</text>
</g>
<!-- 0 -->
<g id="node7" class="node">
<title>0</title>
<ellipse fill="none" stroke="black" cx="18" cy="-67" rx="18" ry="18"/>
<text text-anchor="middle" x="18" y="-63.3" font-family="Times,serif" font-size="14.00">0</text>
</g>
<!-- 0&#45;&gt;5 -->
<g id="edge10" class="edge">
<title>0&#45;&gt;5</title>
<path fill="none" stroke="black" d="M35.19,-72.46C46.03,-76.12 60.55,-81.02 72.99,-85.22"/>
<polygon fill="black" stroke="black" points="72.24,-88.66 82.83,-88.54 74.48,-82.03 72.24,-88.66"/>
<text text-anchor="middle" x="59" y="-85.8" font-family="Times,serif" font-size="14.00">9</text>
</g>
<!-- 0&#45;&gt;1 -->
<g id="edge9" class="edge">
<title>0&#45;&gt;1</title>
<path fill="none" stroke="black" d="M34.9,-60.25C40.85,-57.83 47.69,-55.17 54,-53 59.91,-50.97 66.33,-48.99 72.42,-47.2"/>
<polygon fill="black" stroke="black" points="73.54,-50.52 82.21,-44.42 71.63,-43.79 73.54,-50.52"/>
<text text-anchor="middle" x="59" y="-56.8" font-family="Times,serif" font-size="14.00">7</text>
</g>
</g>
</svg>
