<?xml version="1.0" encoding="UTF-8" standalone="no"?>
<!DOCTYPE svg PUBLIC "-//W3C//DTD SVG 1.1//EN"
 "http://www.w3.org/Graphics/SVG/1.1/DTD/svg11.dtd">
<!-- Generated by graphviz version 2.42.3 (20191010.1750)
 -->
<!-- Title: finite_state_machine Pages: 1 -->
<svg width="360pt" height="155pt"
 viewBox="0.00 0.00 360.00 155.00" xmlns="http://www.w3.org/2000/svg" xmlns:xlink="http://www.w3.org/1999/xlink">
<g id="graph0" class="graph" transform="scale(1 1) rotate(0) translate(4 151)">
<title>finite_state_machine</title>
<polygon fill="white" stroke="transparent" points="-4,4 -4,-151 356,-151 356,4 -4,4"/>
<!-- 4 -->
<g id="node1" class="node">
<title>4</title>
<ellipse fill="none" stroke="black" cx="255" cy="-77" rx="18" ry="18"/>
<text text-anchor="middle" x="255" y="-73.3" font-family="Times,serif" font-size="14.00">4</text>
</g>
<!-- 5 -->
<g id="node2" class="node">
<title>5</title>
<ellipse fill="none" stroke="black" cx="334" cy="-108" rx="18" ry="18"/>
<text text-anchor="middle" x="334" y="-104.3" font-family="Times,serif" font-size="14.00">5</text>
</g>
<!-- 4&#45;&gt;5 -->
<g id="edge1" class="edge">
<title>4&#45;&gt;5</title>
<path fill="none" stroke="black" d="M271.95,-83.42C282.28,-87.58 295.94,-93.08 307.73,-97.82"/>
<polygon fill="black" stroke="black" points="306.48,-101.1 317.07,-101.59 309.1,-94.6 306.48,-101.1"/>
<text text-anchor="middle" x="294.5" y="-96.8" font-family="Times,serif" font-size="14.00">0</text>
</g>
<!-- 1 -->
<g id="node3" class="node">
<title>1</title>
<ellipse fill="none" stroke="black" cx="176" cy="-129" rx="18" ry="18"/>
<text text-anchor="middle" x="176" y="-125.3" font-family="Times,serif" font-size="14.00">1</text>
</g>
<!-- 1&#45;&gt;4 -->
<g id="edge3" class="edge">
<title>1&#45;&gt;4</title>
<path fill="none" stroke="black" d="M191.48,-119.22C202.67,-111.67 218.36,-101.07 231.22,-92.38"/>
<polygon fill="black" stroke="black" points="233.25,-95.23 239.58,-86.74 229.34,-89.43 233.25,-95.23"/>
<text text-anchor="middle" x="215.5" y="-107.8" font-family="Times,serif" font-size="14.00">0</text>
</g>
<!-- 1&#45;&gt;5 -->
<g id="edge2" class="edge">
<title>1&#45;&gt;5</title>
<path fill="none" stroke="black" d="M193.99,-126.71C220.95,-123.08 273.77,-115.97 305.97,-111.64"/>
<polygon fill="black" stroke="black" points="306.59,-115.09 316.03,-110.28 305.65,-108.15 306.59,-115.09"/>
<text text-anchor="middle" x="255" y="-123.8" font-family="Times,serif" font-size="14.00">0</text>
</g>
<!-- 3 -->
<g id="node4" class="node">
<title>3</title>
<ellipse fill="none" stroke="black" cx="97" cy="-72" rx="18" ry="18"/>
<text text-anchor="middle" x="97" y="-68.3" font-family="Times,serif" font-size="14.00">3</text>
</g>
<!-- 3&#45;&gt;4 -->
<g id="edge6" class="edge">
<title>3&#45;&gt;4</title>
<path fill="none" stroke="black" d="M115.29,-72.55C142.23,-73.42 194.46,-75.09 226.58,-76.12"/>
<polygon fill="black" stroke="black" points="226.52,-79.62 236.63,-76.44 226.75,-72.62 226.52,-79.62"/>
<text text-anchor="middle" x="176" y="-77.8" font-family="Times,serif" font-size="14.00">0</text>
</g>
<!-- 3&#45;&gt;1 -->
<g id="edge4" class="edge">
<title>3&#45;&gt;1</title>
<path fill="none" stroke="black" d="M112.12,-82.45C123.52,-90.89 139.76,-102.91 152.88,-112.62"/>
<polygon fill="black" stroke="black" points="150.85,-115.47 160.97,-118.61 155.01,-109.85 150.85,-115.47"/>
<text text-anchor="middle" x="136.5" y="-105.8" font-family="Times,serif" font-size="14.00">0</text>
</g>
<!-- 2 -->
<g id="node5" class="node">
<title>2</title>
<ellipse fill="none" stroke="black" cx="176" cy="-18" rx="18" ry="18"/>
<text text-anchor="middle" x="176" y="-14.3" font-family="Times,serif" font-size="14.00">2</text>
</g>
<!-- 3&#45;&gt;2 -->
<g id="edge5" class="edge">
<title>3&#45;&gt;2</title>
<path fill="none" stroke="black" d="M110.91,-60.48C117.36,-54.95 125.39,-48.37 133,-43 138.64,-39.02 144.94,-35.04 150.91,-31.47"/>
<polygon fill="black" stroke="black" points="153,-34.31 159.87,-26.25 149.47,-28.26 153,-34.31"/>
<text text-anchor="middle" x="136.5" y="-46.8" font-family="Times,serif" font-size="14.00">0</text>
</g>
<!-- 2&#45;&gt;4 -->
<g id="edge7" class="edge">
<title>2&#45;&gt;4</title>
<path fill="none" stroke="black" d="M192.32,-25.98C200.53,-30.53 210.65,-36.6 219,-43 224.38,-47.13 229.82,-52 234.76,-56.74"/>
<polygon fill="black" stroke="black" points="232.46,-59.39 242.01,-63.97 237.4,-54.44 232.46,-59.39"/>
<text text-anchor="middle" x="215.5" y="-46.8" font-family="Times,serif" font-size="14.00">0</text>
</g>
<!-- 0 -->
<g id="node6" class="node">
<title>0</title>
<ellipse fill="none" stroke="black" cx="18" cy="-72" rx="18" ry="18"/>
<text text-anchor="middle" x="18" y="-68.3" font-family="Times,serif" font-size="14.00">0</text>
</g>
<!-- 0&#45;&gt;1 -->
<g id="edge8" class="edge">
<title>0&#45;&gt;1</title>
<path fill="none" stroke="black" d="M34.11,-80.78C40.19,-84.16 47.34,-87.94 54,-91 88.14,-106.66 96.86,-110.78 133,-121 137.83,-122.37 143.05,-123.57 148.1,-124.6"/>
<polygon fill="black" stroke="black" points="147.61,-128.07 158.08,-126.47 148.9,-121.19 147.61,-128.07"/>
<text text-anchor="middle" x="97" y="-118.8" font-family="Times,serif" font-size="14.00">0</text>
</g>
<!-- 0&#45;&gt;3 -->
<g id="edge9" class="edge">
<title>0&#45;&gt;3</title>
<path fill="none" stroke="black" d="M36.09,-72C45.66,-72 57.82,-72 68.68,-72"/>
<polygon fill="black" stroke="black" points="68.96,-75.5 78.96,-72 68.96,-68.5 68.96,-75.5"/>
<text text-anchor="middle" x="57.5" y="-75.8" font-family="Times,serif" font-size="14.00">0</text>
</g>
<!-- 0&#45;&gt;2 -->
<g id="edge10" class="edge">
<title>0&#45;&gt;2</title>
<path fill="none" stroke="black" d="M31.73,-60.28C43.19,-50.45 60.96,-36.94 79,-30 101.09,-21.5 127.94,-18.72 147.63,-17.94"/>
<polygon fill="black" stroke="black" points="147.84,-21.43 157.75,-17.69 147.67,-14.44 147.84,-21.43"/>
<text text-anchor="middle" x="97" y="-33.8" font-family="Times,serif" font-size="14.00">0</text>
</g>
</g>
</svg>
